<?xml version="1.0" encoding="utf-8"?>
<svg width="103.86" height="39.45" viewBox="0 0 415.471 157.82" xmlns="http://www.w3.org/2000/svg" xmlns:xlink="http://www.w3.org/1999/xlink" xmlns:bx="https://boxy-svg.com">
  <defs>
    <linearGradient id="gradient-1-0" gradientUnits="userSpaceOnUse" x1="255.029" y1="43.118" x2="255.029" y2="129.807" xlink:href="#gradient-1"/>
    <linearGradient id="gradient-1" bx:pinned="true">
      <stop offset="0.413" style="stop-color: rgba(0, 137, 34, 0.808);"/>
    </linearGradient>
  </defs>
  <g id="layer1" transform="matrix(0.2897889912128449, 0, 0, 0.2897889912128449, -9.010881558222763, 11.868305383150357)" style="">
    <path style="fill:#30b952;fill-opacity:1" d="m 506.04614,485.9923 c -9.58628,-71.33546 -18.83969,-142.78044 -24.12036,-214.6066 -2.09114,-28.44318 6.21895,-56.56946 16.96726,-82.53462 11.04359,-26.67846 30.22538,-50.43415 57.19907,-63.18642 37.42244,-17.69209 87.66463,-19.12374 118.7423,9.86867 5.40574,5.04302 21.57564,26.96174 13.12592,24.58406 -11.95861,-3.36505 -19.23206,-14.66568 -30.80948,-20.08042 -25.52921,-11.93996 -59.99405,-2.32891 -73.11097,20.97114 -11.19552,19.88701 -13.05122,44.07522 -3.84855,66.18324 7.95128,19.10177 28.59789,26.40261 44.57641,37.1142 35.21106,23.60461 67.0305,54.64901 85.57349,92.83899 12.6455,26.0439 12.01367,60.78937 -8.2929,83.18619 -10.80193,11.91382 -28.71146,6.6649 -36.76061,-6.57621 -13.05422,-21.47459 -10.60111,-52.19589 -29.79141,-68.75165 -10.90839,-9.41083 -28.31987,-14.32671 -41.37448,-4.93999 -19.37099,13.92841 -17.13244,41.6591 -10.4495,61.98909 6.58274,20.02518 24.71273,31.95116 40.24335,44.5154 10.82654,8.75866 27.44767,17.15175 19.88634,36.11724 -6.84138,17.1597 -22.46149,7.30119 -35.43424,7.15612 -29.5555,-0.33049 -58.20297,9.16745 -87.74315,9.09735 -12.93932,-0.0307 -12.53801,-12.10262 -13.25895,-22.46858 -0.24435,-3.51338 -0.72617,-7.00705 -1.31954,-10.4772 z" id="path3" transform="translate(-356.01855,-68.389283)"/>
    <circle style="fill:#24c64d;fill-opacity:1;stroke:none;stroke-width:16.2;stroke-dasharray:none;stroke-opacity:1" id="path14" cx="278.34863" cy="123.96445" r="18.281847"/>
  </g>
  <text style="fill: url('#gradient-1-0'); font-family: 'Liga Comic Mono'; font-size: 80px; white-space: pre; text-decoration: underline solid rgba(0, 0, 0, 0.8);" x="124.246" y="105.322">PIPLUP</text>
</svg>
